<?xml version="1.0" encoding="UTF-8"?>
<svg width="236px" height="266px" viewBox="0 0 236 266" version="1.1" xmlns="http://www.w3.org/2000/svg" xmlns:xlink="http://www.w3.org/1999/xlink">
    <title>Group</title>
    <g id="Design-Manual" stroke="none" stroke-width="1" fill="none" fill-rule="evenodd">
        <g id="Group" transform="translate(122.000000, 126.322027) rotate(30.000000) translate(-122.000000, -126.322027) translate(62.000000, 29.644055)" stroke="#FFFFFF" stroke-width="16">
            <path d="M60,1.86704552e-14 C33.3333333,1.86704552e-14 20,11.1186485 20,33.3559455 L20,73.3559455 L-4.26656736e-14,113.355945 C16.760898,121.922454 36.7646336,126.205708 60.0112066,126.205708 C83.2577796,126.205708 103.254044,121.922454 120,113.355945 L100,73.3559455 L100,33.3559455 C100,11.1186485 86.6666667,1.86704552e-14 60,1.86704552e-14 Z" id="Path"></path>
            <polyline id="Path-2" points="24.4001662 137.494805 18.5891315 163.355945 46.6878986 153.355945 61.6601055 193.355945 76 153.355945 100 173.355945 93.1141133 137.821834"></polyline>
        </g>
    </g>
</svg>